<?xml version="1.0" encoding="UTF-8" standalone="no"?>
<!-- Created with Inkscape (http://www.inkscape.org/) -->

<svg
   xmlns:dc="http://purl.org/dc/elements/1.1/"
   xmlns:cc="http://creativecommons.org/ns#"
   xmlns:rdf="http://www.w3.org/1999/02/22-rdf-syntax-ns#"
   xmlns:svg="http://www.w3.org/2000/svg"
   xmlns="http://www.w3.org/2000/svg"
   xmlns:sodipodi="http://sodipodi.sourceforge.net/DTD/sodipodi-0.dtd"
   xmlns:inkscape="http://www.inkscape.org/namespaces/inkscape"
   width="450"
   height="320"
   viewBox="0 0 119.06249 84.666669"
   version="1.1"
   id="svg839"
   inkscape:version="0.92.3 (2405546, 2018-03-11)"
   sodipodi:docname="jbmkjs_.svg">
  <defs
     id="defs833" />
  <sodipodi:namedview
     id="base"
     pagecolor="#ffffff"
     bordercolor="#666666"
     borderopacity="1.0"
     inkscape:pageopacity="0.0"
     inkscape:pageshadow="2"
     inkscape:zoom="0.35"
     inkscape:cx="-574.87167"
     inkscape:cy="470.96528"
     inkscape:document-units="mm"
     inkscape:current-layer="layer1"
     showgrid="false"
     units="px"
     inkscape:window-width="1366"
     inkscape:window-height="715"
     inkscape:window-x="-8"
     inkscape:window-y="22"
     inkscape:window-maximized="1"
     fit-margin-top="10"
     fit-margin-left="10"
     fit-margin-right="10"
     fit-margin-bottom="10" />
  <metadata
     id="metadata836">
    <rdf:RDF>
      <cc:Work
         rdf:about="">
        <dc:format>image/svg+xml</dc:format>
        <dc:type
           rdf:resource="http://purl.org/dc/dcmitype/StillImage" />
        <dc:title></dc:title>
      </cc:Work>
    </rdf:RDF>
  </metadata>
  <g
     inkscape:label="レイヤー 1"
     inkscape:groupmode="layer"
     id="layer1"
     transform="translate(-8.0925347,-188.77622)">
    <path
       style="font-style:normal;font-variant:normal;font-weight:normal;font-stretch:normal;font-size:15px;line-height:125%;font-family:HakusyuReisyo_kk;-inkscape-font-specification:HakusyuReisyo_kk;letter-spacing:0px;word-spacing:0px;fill:#000000;fill-opacity:1;stroke:none;stroke-width:29.99999809px;stroke-linecap:butt;stroke-linejoin:miter;stroke-opacity:1"
       d="M 205.49023 9.0351562 L 205.44336 9.0664062 C 190.2096 9.0664062 182.59375 13.021089 182.59375 20.931641 C 182.59375 27.963074 184.78983 38.072111 189.18164 51.255859 C 190.46436 54.864445 191.55273 58.219649 192.48438 61.367188 C 184.32492 60.188696 177.97446 59.566406 173.64648 59.566406 C 149.84378 59.566406 127.6956 64.946678 107.19922 75.707031 C 96.179628 81.527504 85.048909 91.934349 73.808594 106.92773 C 66.97672 115.92452 62.899007 122.8042 61.576172 127.56641 C 60.823338 130.0933 60.2089 133.07508 59.712891 136.44336 C 55.761987 137.33375 53.228089 137.83398 52.505859 137.83398 L 46.349609 137.83398 C 43.711499 137.53162 41.806419 137.38086 40.634766 137.38086 C 23.936057 137.08757 15.585938 150.41777 15.585938 177.37109 C 15.585937 184.99062 18.077176 190.4107 23.058594 193.63086 C 36.026193 185.63248 47.873991 179.71359 58.609375 175.86328 C 58.975913 182.4859 59.635473 186.68539 60.589844 188.42188 C 63.0163 192.47353 65.109834 195.47139 66.871094 197.41406 C 69.289991 201.46572 71.050675 204.46162 72.154297 206.4043 C 76.782706 212.75239 84.938133 219.54528 96.619141 226.7793 C 107.19804 233.4804 117.447 238.59496 127.36523 242.125 C 137.28271 245.4737 150.83654 247.14844 168.02734 247.14844 C 178.42044 247.14844 188.81368 246.34825 199.20703 244.75 C 201.27751 275.67625 207.30604 297.76973 217.32422 310.96484 C 224.0845 297.94557 228.80366 276.66031 231.49805 247.16602 C 242.38019 248.91789 253.26218 249.80273 264.14453 249.80273 C 281.33533 249.80273 294.88916 248.12796 304.80664 244.7793 C 314.72412 241.24922 324.97376 236.13274 335.55273 229.43164 C 347.23374 222.19762 355.38722 215.40669 360.01562 209.05859 C 361.11925 207.11592 362.87993 204.12001 365.29883 200.06836 C 367.06009 198.12568 369.15557 195.12783 371.58203 191.07617 C 372.75194 188.93707 373.47548 183.07145 373.75781 173.51758 C 380.48768 175.17634 384.33977 176.02344 385.19531 176.02344 C 393.69093 176.02344 402.77337 170.31028 412.44141 158.88477 C 423.86994 145.41151 431.19391 137.79446 434.41406 136.0332 C 429.37906 130.5394 407.18949 126.57339 368.00977 124.12109 C 365.89283 120.12181 362.67995 115.27959 358.35352 109.58203 C 347.1132 94.588645 335.98256 84.182556 324.96289 78.361328 C 304.46576 67.601769 282.31638 62.220703 258.51367 62.220703 C 253.48448 62.220703 245.78264 63.043696 235.58008 64.634766 C 237.05788 62.580483 239.17432 60.165522 241.9707 57.369141 C 247.53417 52.097456 250.90257 48.14397 252.07422 45.505859 L 249.87305 37.160156 C 246.65062 35.695211 239.32786 30.275131 227.90234 20.900391 C 218.23734 12.989839 210.76645 9.0351562 205.49023 9.0351562 z M 181.22656 77.701172 C 171.06131 82.771561 160.04511 89.574802 151.02148 98.138672 C 144.30901 104.89272 139.49948 114.92926 136.41211 125.05469 C 115.91001 126.43651 99.481686 128.05645 87.222656 129.91992 L 85.771484 130.26562 C 86.340528 128.20942 86.977733 126.33193 87.691406 124.65234 C 96.066083 104.01386 117.22315 89.903115 151.16406 82.318359 C 162.57503 79.667141 172.58203 78.138294 181.22656 77.701172 z M 261.15039 81.298828 C 267.2251 82.090643 273.83038 83.30787 280.99609 84.972656 C 312.4152 91.994007 332.87159 104.61315 342.38281 122.82031 C 338.74171 122.67476 334.99719 122.53669 331.14258 122.41016 C 318.89599 122.07913 307.75159 121.7926 297.23438 121.53125 C 288.01127 98.839679 272.26975 88.109297 261.15039 81.298828 z M 233.58594 88.974609 C 233.88828 89.136467 234.19719 89.297784 234.47461 89.460938 C 243.95366 95.990449 251.00667 100.93064 255.63281 104.2793 L 267.5332 113.80273 C 269.98793 116.35338 271.74915 118.67058 273.06055 120.95703 C 257.59382 120.60979 244.49805 120.35702 234.02344 120.21094 C 232.55698 116.40344 231.82227 112.00876 231.82227 107.02734 C 231.82227 104.68404 232.12574 101.46004 232.73047 97.355469 C 233.20172 93.933034 233.48192 91.153046 233.58594 88.974609 z M 196.27148 93.095703 C 196.40456 108.80876 196.81214 118.10214 197.52539 120.24805 C 189.88254 121.10255 178.03046 122.11337 162.23438 123.26953 L 164.625 116.45703 C 165.94783 114.86963 169.91619 111.6958 176.52734 106.93359 C 180.88972 103.77586 187.59312 99.081915 196.27148 93.095703 z M 260.83008 152.73242 C 266.36573 152.73242 272.21001 152.99633 278.36133 153.52148 C 277.64753 165.70377 273.40222 179.12893 268.20117 188.42188 C 264.45415 194.77299 257.95213 200.59538 248.69531 205.88672 C 243.52023 208.83617 238.43631 211.40669 233.43555 213.62891 C 233.91025 198.49286 234.25533 178.57805 234.46289 153.64062 C 244.13092 153.0359 252.92028 152.73242 260.83008 152.73242 z M 197.51953 153.64062 L 198.31055 216.10156 C 193.44385 213.92118 188.49646 211.40704 183.46484 208.53906 C 174.20802 203.24772 167.70601 197.42653 163.95898 191.07617 C 158.71693 181.70937 155.56013 170.45035 154.47266 157.31641 C 169.04899 155.58437 183.40114 154.35084 197.51953 153.64062 z M 303.83789 156.89258 C 315.83313 158.97401 328.7388 161.83242 342.56836 165.47852 C 345.26841 166.19057 347.27802 166.70773 349.72266 167.34766 C 349.41491 181.88118 344.36738 193.93919 334.54688 203.50781 C 331.46278 206.68262 325.9512 211.18072 318.01562 217.00195 C 310.96303 220.87975 298.62173 223.96767 280.99023 226.26562 C 271.29272 227.49775 265.23159 228.11328 262.80664 228.11328 C 260.14493 228.11328 257.56774 228.06338 255.0293 227.98828 C 266.07949 222.56475 274.99819 216.25584 281.75195 209.04883 C 288.14313 202.34546 293.43142 192.64333 297.61914 179.94336 C 300.96246 170.17606 303.03073 162.49968 303.83789 156.89258 z M 131.90039 160.37695 C 132.09919 170.21444 133.25329 178.80523 134.55078 182.5957 C 138.7385 195.29643 144.02874 204.99856 150.41992 211.70117 C 155.09388 216.68882 160.81321 221.24318 167.54492 225.37695 C 164.48138 225.19454 159.11352 224.62256 151.16992 223.61328 C 133.53843 221.31533 121.19717 218.2274 114.14453 214.34961 C 106.20904 208.52838 100.69933 204.03031 97.615234 200.85547 C 88.911794 192.37529 83.95627 181.93893 82.724609 169.55859 C 99.38799 165.89326 115.77954 162.83171 131.90039 160.37695 z "
       transform="matrix(0.26458333,0,0,0.26458333,8.0925347,188.77622)"
       id="path1466" />
  </g>
</svg>
